<svg enable-background="new 0 0 32 32" height="512" viewBox="0 0 32 32" width="512" xmlns="http://www.w3.org/2000/svg"><g id="BG"><path d="m26 32h-20c-3.314 0-6-2.686-6-6v-20c0-3.314 2.686-6 6-6h20c3.314 0 6 2.686 6 6v20c0 3.314-2.686 6-6 6z" fill="#f5e6fe"/></g><g id="bold"><circle cx="11.333" cy="12.667" fill="#be63f9" r="1.333"/><path d="m14.333 19.667c0-2.599 1.869-4.766 4.333-5.236v-4.431c0-1.103-.897-2-2-2h-6.666c-1.103 0-2 .897-2 2v9.333c0 1.103.897 2 2 2h4.604c-.174-.525-.271-1.084-.271-1.666zm-3.173-3.547c-.44-.44-1.214-.44-1.654 0l-.173.173v-6.293c0-.368.299-.667.667-.667h6.667c.368 0 .667.299.667.667v4.293l-.507-.507c-.456-.456-1.198-.456-1.654 0l-3.173 3.174z" fill="#be63f9"/><path d="m19.667 15.333c-2.389 0-4.333 1.944-4.333 4.333s1.943 4.334 4.333 4.334 4.333-1.944 4.333-4.333-1.944-4.334-4.333-4.334zm1.833 5h-1.167v1.167c0 .368-.298.667-.667.667s-.666-.298-.666-.667v-1.167h-1.167c-.368 0-.667-.298-.667-.667s.299-.666.667-.666h1.167v-1.167c0-.368.298-.667.667-.667s.667.298.667.667v1.167h1.166c.368 0 .667.298.667.667s-.298.666-.667.666z" fill="#d9a4fc"/></g></svg>