<svg id="Capa_1" enable-background="new 0 0 512 512" height="512" viewBox="0 0 512 512" width="512" xmlns="http://www.w3.org/2000/svg"><g><g><g><g><g><g><circle cx="256" cy="256" fill="#7584f2" r="256"/></g></g></g></g></g><path d="m332.921 500.242c99.877-31.424 173.348-122.42 178.759-231.33l-176.59-177.307-7.509-6.792-197.912 207.928 74.141 74.141-1.756 2.493z" fill="#4253ce"/><g><path d="m302.892 189.331c74.76 0 135.366 48.353 135.366 108 0 27.968-13.325 53.453-35.186 72.634v60.572l-55.658-31.184c-13.944 3.873-28.925 5.978-44.523 5.978-74.761 0-135.366-48.353-135.366-108s60.606-108 135.367-108z" fill="#1dd882"/></g><g><path d="m302.892 189.331c-.114 0-.227.003-.341.003v215.993c.114 0 .227.003.341.003 15.598 0 30.579-2.105 44.523-5.978l55.657 31.184v-60.572c21.861-19.181 35.186-44.666 35.186-72.634 0-59.646-60.606-107.999-135.366-107.999z" fill="#2cc47f"/></g><g><g><circle cx="234.633" cy="298.793" fill="#fff" r="21.066"/></g><g><circle cx="371.151" cy="298.793" fill="#e9edf5" r="21.066"/></g></g><g><circle cx="302.892" cy="298.793" fill="#fff" r="21.066"/></g><g><path d="m302.892 277.727c-.115 0-.226.015-.341.017v42.098c.115.002.226.017.341.017 11.635 0 21.066-9.432 21.066-21.066s-9.432-21.066-21.066-21.066z" fill="#e9edf5"/></g><g><path d="m229.85 51.536c-74.76 0-135.366 48.353-135.366 108 0 27.968 13.325 53.452 35.186 72.634v60.572l55.658-31.184c13.944 3.873 28.925 5.978 44.523 5.978 74.761 0 135.367-48.353 135.367-108s-60.608-108-135.368-108z" fill="#ffce00"/></g><g><path d="m365.216 159.536c0-59.581-60.473-107.891-135.12-107.997v215.994c74.647-.107 135.12-48.417 135.12-107.997z" fill="#fdba12"/></g><g><g><path d="m244.85 196.864h-30v-1.722c0-18.484 9.509-35.431 25.438-45.335 6.262-3.894 9.836-10.9 9.326-18.285-.674-9.774-8.553-17.653-18.326-18.327-5.587-.382-10.895 1.488-14.952 5.275-4.062 3.791-6.299 8.937-6.299 14.489h-30c0-13.756 5.77-27.031 15.829-36.42 10.201-9.522 23.51-14.24 37.486-13.272 24.634 1.699 44.491 21.557 46.191 46.191 1.275 18.493-7.697 36.053-23.415 45.826-7.062 4.391-11.278 11.814-11.278 19.858z" fill="#555a66"/></g><g><path d="m279.543 129.457c-1.7-24.634-21.558-44.492-46.191-46.191-1.09-.075-2.175-.104-3.256-.111v30.017c.397.004.792-.005 1.191.022 9.773.674 17.652 8.553 18.326 18.327.51 7.384-3.064 14.391-9.326 18.285-3.776 2.348-7.178 5.103-10.191 8.169v38.888h14.754v-1.722c0-8.044 4.216-15.467 11.278-19.858 15.718-9.773 24.69-27.333 23.415-45.826z" fill="#333940"/></g><g><path d="m214.85 210.046h30v23.069h-30z" fill="#555a66"/></g><g><path d="m230.096 210.046h14.754v23.069h-14.754z" fill="#333940"/></g></g></g></svg>